<?xml version="1.0" standalone="no"?>
<!DOCTYPE svg PUBLIC "-//W3C//DTD SVG 20010904//EN"
 "http://www.w3.org/TR/2001/REC-SVG-20010904/DTD/svg10.dtd">
<svg version="1.0" xmlns="http://www.w3.org/2000/svg"
 width="1920.000000pt" height="1705.000000pt" viewBox="0 0 1920.000000 1705.000000"
 preserveAspectRatio="xMidYMid meet">

<g transform="translate(0.000000,1705.000000) scale(0.100000,-0.100000)"
fill="#000000" stroke="none">
<path d="M12000 17044 c-163 -13 -279 -27 -375 -45 -143 -25 -344 -74 -355
-85 -5 -5 -4 -40 2 -82 9 -57 9 -103 -1 -200 -40 -386 -35 -448 63 -776 41
-140 49 -204 32 -285 -35 -167 -126 -269 -289 -324 -60 -21 -82 -21 -582 -23
-298 -1 -573 -7 -645 -13 -945 -87 -1986 -420 -2837 -907 -289 -165 -444 -273
-918 -637 -384 -295 -568 -452 -619 -526 -28 -39 -28 -40 -21 -163 l7 -123
-58 -85 c-31 -47 -100 -143 -153 -215 -329 -450 -467 -739 -510 -1070 -6 -44
-15 -176 -21 -294 -9 -196 -12 -218 -35 -267 -57 -120 -17 -167 172 -201 l85
-16 242 -226 c288 -269 518 -475 798 -714 114 -97 209 -185 212 -194 3 -10 59
-202 126 -428 141 -476 292 -1005 310 -1087 7 -31 10 -63 7 -72 -3 -8 -24 -20
-45 -26 -56 -15 -65 -28 -53 -83 6 -24 15 -57 21 -72 10 -26 12 -27 63 -21 44
6 56 4 69 -11 26 -30 88 -242 88 -299 0 -24 -40 -74 -212 -264 -377 -417 -694
-740 -726 -740 -4 0 -42 31 -84 69 -43 39 -98 79 -124 90 -26 12 -77 44 -115
72 -37 27 -95 61 -128 74 -33 12 -85 41 -116 64 -32 22 -73 45 -94 51 -20 7
-88 36 -151 66 -63 29 -137 58 -165 63 -27 5 -84 23 -126 40 -43 17 -110 38
-150 46 -41 8 -107 27 -147 40 -40 14 -90 25 -111 25 -21 0 -81 11 -133 24
-70 19 -109 23 -149 19 -36 -3 -82 1 -130 12 -58 13 -97 15 -176 10 -63 -4
-121 -3 -155 4 -43 9 -74 8 -149 -3 -52 -9 -173 -22 -270 -30 -96 -9 -194 -22
-216 -30 -23 -8 -89 -22 -147 -30 -87 -13 -121 -23 -182 -56 -65 -34 -85 -40
-138 -40 -56 0 -69 -5 -136 -45 -41 -25 -91 -47 -110 -50 -69 -12 -77 -15
-136 -55 -32 -22 -83 -48 -113 -56 -29 -9 -90 -40 -135 -69 -44 -29 -103 -64
-131 -78 -27 -14 -79 -48 -115 -77 -36 -29 -85 -62 -110 -75 -25 -13 -78 -53
-118 -89 -40 -37 -90 -77 -110 -90 -61 -38 -287 -267 -311 -314 -12 -24 -36
-51 -53 -60 -56 -31 -84 -60 -117 -122 -18 -34 -53 -84 -77 -112 -25 -27 -61
-75 -81 -106 -20 -32 -60 -93 -88 -137 -29 -44 -64 -107 -77 -140 -13 -33 -42
-85 -65 -115 -22 -30 -46 -73 -53 -95 -6 -22 -32 -83 -56 -136 -24 -52 -49
-122 -55 -155 -6 -32 -28 -93 -49 -134 -27 -52 -40 -95 -45 -139 -4 -36 -21
-103 -37 -150 -25 -72 -28 -93 -23 -146 6 -56 4 -69 -25 -135 -32 -73 -32 -75
-36 -264 -3 -105 -9 -229 -15 -276 -9 -69 -8 -103 4 -180 9 -52 18 -140 22
-195 10 -178 26 -289 51 -360 13 -38 28 -104 33 -145 5 -43 18 -94 30 -119 13
-24 29 -75 37 -115 9 -39 32 -109 54 -156 21 -47 45 -109 54 -139 9 -30 30
-75 46 -102 17 -26 47 -85 66 -131 19 -45 54 -113 79 -151 25 -37 56 -91 69
-120 12 -29 46 -79 74 -111 28 -32 65 -82 81 -110 15 -28 61 -89 100 -136 40
-47 84 -103 98 -125 14 -22 44 -53 67 -69 22 -16 65 -58 95 -93 29 -36 81 -87
115 -113 33 -27 84 -73 112 -103 28 -31 69 -64 91 -76 22 -11 71 -45 109 -76
38 -32 92 -68 119 -82 28 -14 82 -49 120 -78 39 -30 96 -63 128 -75 31 -12 84
-40 117 -63 92 -64 121 -77 167 -77 32 0 50 -7 76 -29 37 -33 83 -53 177 -76
36 -9 89 -27 117 -41 29 -13 90 -31 135 -39 46 -8 110 -25 143 -38 33 -14 92
-28 130 -31 39 -4 107 -16 153 -27 46 -10 116 -19 155 -19 40 0 90 -7 113 -14
31 -11 57 -13 114 -5 44 5 105 5 154 0 54 -6 100 -6 136 2 30 6 111 11 180 12
69 1 148 7 175 14 28 7 82 16 120 21 39 4 99 14 135 23 36 9 96 21 134 27 38
6 98 25 134 42 36 16 95 34 131 39 40 6 86 21 118 40 30 16 94 43 144 59 49
16 117 47 149 69 33 21 78 42 100 46 23 4 74 29 122 62 46 30 112 70 148 88
36 18 86 51 111 73 25 22 72 56 105 75 32 20 88 61 124 92 36 32 83 69 105 84
54 35 288 269 308 307 9 17 44 55 78 85 34 30 81 83 104 119 23 36 63 90 89
120 26 30 59 78 73 105 14 28 46 78 70 113 25 35 60 96 79 137 19 41 38 77 44
80 17 10 289 35 735 65 778 53 955 79 1141 164 156 73 311 198 416 336 45 60
117 193 167 313 25 58 50 71 188 91 197 29 383 39 636 32 270 -6 289 -4 336
48 32 34 41 127 17 174 -21 40 -20 58 2 67 9 4 82 11 162 16 388 25 616 87
732 199 54 53 73 107 65 191 -11 121 -45 143 -328 214 -101 26 -218 58 -259
71 -224 75 -477 255 -725 517 -118 123 -205 233 -205 259 0 25 178 249 855
1078 1124 1376 1459 1788 1578 1947 82 109 117 140 247 225 47 30 118 82 159
115 101 84 117 92 135 67 8 -10 31 -68 52 -129 20 -60 47 -133 60 -162 26 -59
18 -56 223 -99 91 -19 132 -32 148 -48 11 -11 47 -68 78 -126 32 -58 77 -133
101 -167 67 -94 230 -470 249 -575 11 -59 1 -72 -83 -111 -42 -19 -108 -61
-146 -92 -38 -31 -90 -67 -115 -80 -25 -13 -79 -53 -119 -89 -40 -37 -90 -77
-110 -90 -58 -38 -286 -266 -312 -314 -15 -26 -42 -54 -71 -72 -49 -30 -73
-58 -109 -130 -13 -25 -48 -72 -79 -105 -31 -34 -69 -85 -85 -115 -16 -30 -49
-84 -73 -119 -25 -36 -62 -101 -82 -145 -21 -45 -49 -94 -63 -111 -33 -40 -58
-89 -58 -116 0 -11 -20 -62 -45 -113 -25 -50 -50 -118 -56 -151 -6 -33 -26
-89 -46 -125 -26 -47 -39 -88 -48 -151 -7 -48 -23 -109 -36 -136 -17 -38 -23
-68 -24 -143 -2 -79 -7 -106 -30 -160 -26 -62 -28 -75 -36 -290 -4 -124 -11
-250 -14 -281 -5 -38 -2 -87 9 -145 8 -49 20 -168 25 -264 8 -152 13 -187 40
-270 17 -52 35 -128 41 -168 5 -40 21 -94 34 -120 13 -26 28 -77 34 -113 6
-38 29 -107 55 -165 25 -54 50 -117 56 -139 6 -22 26 -66 46 -98 19 -31 49
-91 66 -133 17 -41 47 -96 65 -122 19 -26 49 -78 67 -117 19 -38 57 -97 86
-130 29 -33 66 -85 81 -115 15 -30 43 -68 60 -85 18 -16 58 -64 88 -105 89
-119 449 -467 547 -529 33 -21 84 -58 113 -83 29 -25 76 -58 105 -73 28 -15
86 -52 127 -80 41 -29 98 -60 125 -71 28 -10 79 -38 115 -63 79 -54 119 -71
164 -71 22 0 45 -9 63 -24 40 -33 64 -44 162 -76 47 -16 122 -42 166 -58 44
-16 118 -37 165 -46 47 -10 105 -23 130 -31 25 -7 72 -16 105 -20 33 -4 94
-15 137 -26 42 -10 111 -19 153 -19 50 0 86 -5 107 -16 27 -14 41 -15 99 -5
87 14 138 14 194 -1 38 -10 60 -9 136 6 67 14 111 17 164 12 56 -5 97 -2 171
14 53 11 115 20 138 20 22 0 58 7 81 15 22 8 83 21 135 29 65 9 116 23 161 45
36 17 95 36 130 42 36 5 99 27 144 48 44 22 109 47 144 57 35 9 86 33 114 52
27 19 80 44 116 56 36 12 95 42 131 67 36 24 96 60 134 79 37 19 87 52 110 73
22 20 70 55 106 77 36 21 94 65 130 96 36 32 83 69 105 83 63 41 290 271 314
319 15 29 39 54 75 77 40 25 63 51 94 103 23 39 65 95 92 126 28 30 66 86 85
124 18 39 47 85 64 105 17 19 49 72 70 118 22 46 58 112 80 147 22 35 49 92
60 127 11 34 36 89 55 121 25 41 38 79 45 126 6 46 21 88 46 132 26 48 39 86
47 138 5 40 20 105 34 144 17 50 24 92 24 144 0 52 7 94 24 144 55 158 66 852
17 1006 -6 19 -11 70 -11 112 0 59 -6 94 -26 145 -14 38 -29 103 -34 146 -6
47 -20 102 -35 135 -15 32 -33 88 -41 126 -8 38 -32 110 -54 159 -22 50 -43
108 -46 129 -4 22 -24 66 -46 100 -22 33 -49 86 -60 117 -11 31 -45 93 -74
139 -30 46 -67 109 -83 140 -16 31 -56 91 -90 132 -34 41 -61 81 -61 89 0 17
-37 67 -107 144 -29 31 -67 79 -83 106 -17 27 -48 60 -70 74 -21 15 -62 54
-90 87 -27 34 -86 92 -131 131 -44 38 -92 83 -106 99 -14 17 -55 48 -92 69
-36 22 -93 63 -126 91 -33 28 -82 63 -110 77 -27 14 -80 48 -117 75 -37 27
-94 59 -126 72 -33 13 -86 41 -118 63 -33 22 -77 46 -99 53 -22 7 -84 35 -138
62 -55 27 -131 57 -170 67 -40 10 -96 30 -124 45 -31 15 -84 30 -130 37 -43 6
-105 22 -138 35 -33 14 -98 29 -145 35 -47 5 -117 18 -156 29 -49 14 -85 18
-117 14 -28 -4 -89 0 -154 11 -90 15 -144 17 -333 11 -124 -3 -270 -13 -325
-21 -55 -9 -140 -20 -190 -24 -49 -5 -102 -13 -116 -19 -14 -5 -73 -17 -130
-26 -105 -15 -135 -24 -244 -70 -33 -14 -74 -26 -92 -26 -17 0 -61 -16 -97
-35 -37 -19 -73 -35 -81 -35 -9 0 -24 15 -35 32 -11 18 -92 252 -181 520 -88
269 -167 495 -175 503 -12 12 -45 15 -163 15 l-148 0 -47 50 c-53 57 -106 160
-106 206 0 36 3 37 184 101 379 132 528 309 591 703 17 110 21 537 5 685 -13
122 -9 125 101 87 46 -17 131 -46 189 -66 242 -85 380 -87 520 -9 l45 25 105
-32 c247 -74 368 -45 390 96 5 32 12 125 15 206 l7 146 -103 149 c-56 81 -132
178 -168 214 -149 149 -330 194 -866 219 -452 20 -588 36 -749 87 -197 62
-631 272 -901 436 -129 79 -462 298 -498 328 -20 18 -47 76 -108 234 -231 600
-278 766 -300 1051 -18 226 18 570 71 690 16 37 24 44 71 59 74 24 244 97 364
158 291 145 415 159 694 75 178 -53 256 -34 376 93 169 179 289 437 332 714
12 77 13 134 8 250 -11 208 -10 213 20 245 27 28 63 46 200 101 94 38 139 78
155 140 17 61 7 440 -14 530 -107 465 -461 792 -1018 944 -265 72 -311 77
-703 80 -198 1 -380 1 -405 -1z m-1245 -5046 c245 -477 380 -704 728 -1221
108 -161 149 -215 181 -235 100 -63 469 -223 731 -317 221 -79 230 -85 153
-105 -82 -21 -129 -42 -165 -76 -34 -32 -35 -36 -29 -81 3 -26 22 -97 40 -158
71 -227 126 -486 129 -608 l2 -72 -120 -33 c-332 -91 -1704 -430 -1777 -439
-46 -5 -48 -5 -48 18 0 13 11 65 24 115 120 457 46 723 -304 1088 -232 243
-383 357 -1090 828 -622 415 -865 593 -901 660 -18 34 3 49 304 224 l179 103
206 10 c328 15 453 56 887 293 354 193 558 278 670 278 l60 0 140 -272z m2791
-2041 c35 -10 73 -44 230 -207 238 -246 271 -302 293 -499 30 -270 -111 -528
-354 -646 -97 -47 -180 -65 -308 -65 l-108 0 -20 48 c-12 26 -75 187 -140 359
-66 171 -153 389 -195 485 -41 95 -83 193 -92 216 l-17 44 29 23 c33 26 402
217 463 239 46 18 163 19 219 3z m520 -39 c20 -19 9 -44 -37 -82 -46 -39 -116
-36 -206 9 -38 19 -78 43 -87 54 -35 38 -13 44 155 39 128 -3 162 -7 175 -20z
m-7285 -816 c24 -16 148 -110 274 -208 127 -98 302 -231 389 -294 190 -137
324 -248 394 -324 69 -76 144 -198 146 -238 1 -30 -3 -33 -49 -51 -60 -22
-360 -100 -609 -157 l-179 -41 -20 20 c-15 14 -21 34 -21 68 l-1 47 70 26 c62
23 71 29 82 60 16 47 16 127 0 133 -6 2 -53 -6 -102 -19 -118 -31 -131 -31
-150 5 -17 34 -285 957 -285 983 0 24 9 23 61 -10z m5364 -625 c12 -10 16 -21
12 -38 -10 -37 -253 -338 -1137 -1404 -306 -368 -695 -841 -865 -1050 -382
-470 -436 -535 -446 -535 -44 0 6 335 95 642 25 84 90 292 146 462 123 378
171 550 255 911 70 299 130 530 151 582 11 25 25 36 71 53 95 35 1028 261
1448 350 198 42 242 47 270 27z m-5230 -1431 c9 -47 -59 -298 -102 -376 -69
-127 -244 -388 -360 -537 -74 -96 -84 -99 -173 -55 -46 23 -59 36 -83 82 -16
30 -46 73 -68 97 l-40 43 18 31 c26 45 266 302 525 564 l227 230 25 -24 c14
-13 28 -38 31 -55z m1859 -286 c24 -110 34 -684 17 -949 -11 -168 -59 -535
-101 -779 -21 -125 -13 -109 -199 -402 -51 -80 -129 -218 -173 -307 l-80 -163
-52 0 c-86 0 -81 -9 -171 340 -31 118 -135 507 -232 863 l-177 648 30 25 c16
14 205 157 419 318 215 162 450 339 524 395 90 69 140 101 155 99 18 -3 24
-16 40 -88z m-4959 -70 c170 -16 175 -18 175 -49 0 -69 -129 -1036 -255 -1916
-95 -660 -102 -701 -120 -683 -11 10 -35 554 -75 1658 -23 637 -29 970 -17
988 10 15 146 16 292 2z m12119 -10 c39 -6 72 -12 74 -15 12 -11 -168 -1359
-304 -2275 -49 -333 -52 -350 -64 -350 -14 0 -19 65 -35 440 -54 1276 -79
2181 -61 2209 7 12 37 13 165 7 86 -3 187 -11 225 -16z m-12489 -3 c24 -18 29
-90 55 -792 52 -1399 62 -1845 40 -1845 -5 0 -10 2 -10 4 0 2 -9 39 -20 84
-38 153 -420 1932 -505 2355 -19 97 -23 132 -15 142 14 17 80 31 230 49 152
18 202 19 225 3z m12023 5 c17 -11 27 -190 57 -997 37 -1015 47 -1356 43
-1505 -5 -232 1 -253 -197 665 -122 566 -305 1427 -346 1635 l-27 134 21 17
c13 11 65 22 158 33 76 10 147 19 158 20 43 7 121 5 133 -2z m-11145 -68 c189
-48 190 -49 183 -96 -14 -83 -250 -830 -687 -2167 -95 -289 -103 -311 -121
-311 -17 0 -6 102 67 635 183 1334 274 1956 288 1974 16 19 97 8 270 -35z
m11878 30 c120 -22 278 -63 310 -80 l28 -14 -15 -52 c-73 -251 -369 -1172
-601 -1871 -188 -566 -223 -653 -215 -536 12 188 340 2485 362 2545 11 28 21
29 131 8z m-13253 -129 c73 -292 457 -2071 512 -2377 40 -225 6 -155 -348 717
-360 885 -632 1576 -632 1605 0 12 16 26 48 41 72 36 323 109 362 106 l35 -2
23 -90z m12009 40 c82 -315 519 -2364 530 -2485 5 -52 4 -54 -11 -34 -26 36
-311 727 -716 1737 -243 607 -273 686 -266 702 9 25 357 136 415 132 33 -2 36
-5 48 -52z m-10152 -97 c82 -33 158 -67 168 -76 46 -41 9 -127 -333 -773 -491
-925 -750 -1402 -783 -1436 -24 -27 -47 -30 -47 -6 0 54 733 2312 763 2351 16
20 62 8 232 -60z m11921 36 c126 -47 276 -117 291 -136 20 -23 -114 -286 -840
-1653 -375 -707 -372 -702 -395 -694 -13 5 -24 -34 310 1004 484 1506 488
1515 519 1515 11 0 63 -16 115 -36z m-14277 -133 c46 -90 132 -296 399 -951
419 -1029 565 -1401 555 -1411 -18 -18 -26 -6 -743 1141 -620 992 -660 1057
-660 1079 0 23 38 53 133 105 90 50 238 115 259 116 12 0 31 -25 57 -79z
m12026 -13 c119 -252 960 -2332 949 -2349 -12 -20 -46 25 -188 251 -336 529
-1177 1883 -1209 1947 l-17 32 35 29 c50 41 329 182 360 182 23 0 31 -11 70
-92z m-9332 -59 c52 -27 208 -130 265 -176 43 -35 43 -35 26 -62 -41 -62 -462
-570 -818 -986 -470 -549 -526 -609 -496 -529 27 71 900 1720 933 1762 14 18
42 15 90 -9z m12065 -28 c158 -96 272 -181 272 -202 0 -32 -1595 -2089 -1620
-2089 -30 0 -23 13 383 780 447 844 813 1527 829 1548 19 22 54 13 136 -37z
m-15247 -94 c73 -101 1120 -1763 1312 -2083 65 -109 76 -134 58 -134 -15 0
-877 947 -1456 1600 -308 348 -307 347 -300 370 12 38 318 270 355 270 8 0 22
-11 31 -23z m12057 -62 c132 -198 1044 -1643 1251 -1983 60 -97 90 -157 84
-163 -10 -10 -126 113 -534 561 -410 451 -1000 1111 -1177 1316 -28 33 -52 68
-52 77 0 28 274 245 340 270 26 10 34 3 88 -78z m3591 -132 c65 -53 229 -213
253 -246 l20 -29 -49 -46 c-638 -598 -1770 -1626 -1875 -1702 -23 -17 -44 -27
-46 -21 -6 17 36 72 831 1094 857 1102 781 1018 866 950z m-15868 -345 c390
-421 1418 -1558 1502 -1659 36 -45 46 -69 28 -69 -13 0 -798 606 -1582 1221
-442 347 -489 386 -489 403 0 34 279 336 310 336 9 0 113 -105 231 -232z
m11947 75 c235 -248 1248 -1362 1520 -1673 85 -97 106 -130 83 -130 -14 0
-609 458 -1416 1090 -660 517 -655 512 -655 540 0 30 277 330 305 330 7 0 80
-71 163 -157z m-7859 42 c17 -20 31 -38 31 -41 0 -19 -37 -58 -172 -181 -84
-76 -237 -215 -339 -309 -102 -94 -287 -261 -410 -371 -342 -306 -419 -369
-419 -344 0 28 1234 1282 1261 1281 10 0 31 -16 48 -35z m1465 -57 c21 -33 42
-109 182 -639 203 -772 227 -868 220 -884 -13 -35 -234 -7 -355 46 -32 13 -60
36 -83 67 -63 82 -107 166 -118 220 -5 29 -14 61 -19 71 -6 10 -19 60 -30 111
-14 62 -35 118 -65 174 -47 87 -58 119 -76 209 -9 43 -21 69 -51 103 -45 53
-49 82 -16 136 66 108 347 408 381 408 9 0 22 -10 30 -22z m10807 -238 c35
-50 74 -108 87 -130 l23 -39 -50 -40 c-100 -78 -1844 -1180 -2148 -1356 -38
-22 -50 -16 -31 15 17 27 1102 1013 1743 1584 l200 178 56 -61 c31 -34 85
-102 120 -151z m-12167 177 c14 -22 -28 -66 -120 -122 -83 -50 -114 -62 -114
-43 0 14 106 117 164 160 42 30 54 31 70 5z m-4621 -274 c376 -283 1428 -1098
1765 -1366 153 -122 178 -147 150 -147 -43 0 -2253 1174 -2307 1225 -20 19 -9
48 61 166 77 127 154 229 174 229 8 0 79 -48 157 -107z m12163 -111 c484 -365
1401 -1078 1672 -1300 146 -119 124 -125 -75 -22 -1102 576 -2034 1074 -2115
1132 -16 11 -28 27 -28 37 0 56 210 371 247 371 6 0 140 -98 299 -218z m4815
-79 c51 -80 169 -323 169 -348 0 -19 -14 -29 -92 -63 -354 -155 -2321 -952
-2348 -952 -17 0 -11 15 13 37 37 34 180 126 682 440 901 564 1508 933 1531
933 8 0 28 -21 45 -47z m-17224 -244 c878 -451 2034 -1066 2102 -1117 72 -54
49 -48 -479 119 -456 145 -1368 442 -1705 556 -279 94 -290 99 -293 125 -6 49
155 408 183 408 8 0 95 -41 192 -91z m12037 -10 c417 -211 1745 -912 2011
-1061 71 -40 119 -78 98 -78 -23 0 -557 168 -1608 506 -703 227 -879 285 -894
300 -12 11 -10 24 14 91 32 91 108 264 137 311 11 17 25 32 31 32 6 0 101 -46
211 -101z m-7940 39 c-3 -13 -17 -43 -29 -68 -35 -69 -53 -140 -60 -239 l-8
-91 -306 -192 c-478 -300 -773 -480 -793 -486 -10 -2 -18 0 -18 5 0 34 1173
1093 1211 1093 6 0 8 -9 3 -22z m13352 -268 c29 -58 93 -271 101 -332 7 -57
-4 -74 -58 -88 -104 -28 -2186 -473 -2408 -514 -98 -19 -111 -19 -111 -5 0 21
432 202 1540 642 865 344 872 347 894 344 12 -1 28 -19 42 -47z m-17581 -234
c166 -51 1081 -345 1820 -585 171 -56 334 -111 363 -122 52 -21 70 -49 32 -49
-31 0 -484 62 -1320 181 -1073 152 -1254 180 -1263 193 -4 6 -5 36 -1 66 6 56
78 352 90 372 11 18 88 2 279 -56z m11919 28 c454 -133 2317 -740 2328 -758
16 -24 -13 -28 -109 -17 -160 20 -1251 174 -1773 251 -526 77 -710 106 -718
115 -13 13 63 377 89 428 14 25 47 22 183 -19z m-7686 -58 c46 -47 82 -90 80
-98 -6 -18 -278 -135 -781 -336 -427 -172 -477 -190 -477 -173 0 21 1051 691
1084 691 5 0 48 -38 94 -84z m261 -187 c148 -79 238 -140 220 -149 -37 -20
-822 -195 -1381 -307 -301 -60 -325 -50 -104 44 212 90 1141 462 1155 463 8 0
57 -23 110 -51z m13220 -32 c14 -36 41 -230 48 -338 5 -88 4 -98 -13 -107 -28
-15 -128 -20 -859 -47 -1335 -49 -1754 -60 -1767 -47 -6 6 -9 14 -6 17 7 8
323 77 1343 295 512 109 982 210 1045 223 154 34 198 34 209 4z m-10431 -146
c9 -89 -23 -141 -86 -141 -21 0 -54 -8 -74 -19 -20 -10 -51 -21 -69 -25 -17
-3 -47 -19 -66 -36 -18 -16 -45 -30 -58 -30 -14 0 -41 -15 -62 -34 -21 -18
-48 -38 -60 -45 -13 -6 -23 -18 -23 -25 0 -8 -31 -48 -69 -90 -76 -84 -93
-118 -138 -288 -21 -81 -27 -126 -27 -215 -1 -67 3 -116 10 -123 7 -7 14 36
21 152 12 175 11 174 97 362 34 76 53 104 80 122 20 14 43 38 51 54 9 17 20
30 26 30 6 0 33 20 60 44 28 25 66 50 87 57 20 6 63 25 94 40 48 24 70 29 133
29 l76 0 14 -34 c8 -19 17 -52 21 -74 7 -46 5 -48 -100 -63 -44 -6 -85 -19
-106 -33 -19 -12 -52 -29 -73 -35 -21 -7 -41 -19 -44 -27 -3 -8 -25 -28 -49
-45 -24 -16 -44 -35 -44 -41 0 -6 -18 -30 -40 -54 -22 -24 -40 -50 -40 -59 0
-8 -11 -37 -25 -63 -35 -68 -48 -140 -42 -245 8 -132 20 -187 50 -231 15 -21
27 -45 27 -52 0 -27 146 -174 197 -198 168 -81 209 -91 371 -84 112 5 124 7
176 37 31 17 63 31 72 31 9 0 28 13 42 28 15 16 46 41 69 55 30 19 43 34 45
54 2 23 16 35 70 66 40 23 81 39 102 40 111 3 77 -105 -83 -263 -96 -95 -102
-99 -290 -189 -48 -22 -53 -43 -9 -35 74 14 243 110 305 174 15 16 42 44 59
62 17 18 39 49 49 68 10 19 24 43 32 52 8 9 20 36 27 60 10 36 20 47 56 66 51
25 126 29 156 8 18 -14 18 -17 3 -59 -8 -24 -44 -98 -80 -163 -67 -123 -168
-243 -235 -277 -17 -9 -34 -23 -37 -31 -4 -9 -22 -22 -42 -31 -20 -8 -50 -25
-65 -39 -16 -13 -46 -27 -67 -31 -21 -4 -45 -12 -53 -19 -8 -7 -52 -25 -98
-40 -74 -23 -99 -26 -225 -26 -87 0 -169 6 -212 15 -98 21 -107 20 -99 -9 6
-25 -8 -33 -86 -50 -79 -17 -851 -86 -961 -86 -58 0 -59 1 -59 28 1 66 30 164
63 210 49 67 63 100 70 157 3 28 22 84 41 125 23 47 36 89 36 115 1 52 12 94
50 185 37 90 50 102 92 88 31 -11 58 -57 58 -97 0 -18 13 -50 60 -151 30 -66
121 -199 158 -232 4 -3 30 -28 57 -53 87 -83 333 -230 352 -212 13 14 -8 35
-41 40 -20 3 -53 20 -73 36 -21 17 -46 31 -55 31 -10 0 -35 15 -55 33 -21 19
-53 42 -70 53 -18 10 -33 22 -33 26 0 4 -34 45 -76 90 -42 46 -83 97 -90 113
-7 17 -24 45 -38 64 -14 18 -28 47 -32 65 -4 17 -13 41 -21 53 -15 23 -21 43
-53 197 -16 76 -17 104 -9 205 6 64 15 130 21 146 5 17 14 54 18 83 5 30 15
61 23 70 8 10 18 31 21 47 4 17 21 50 37 74 16 25 29 50 29 57 0 18 10 23 113
50 103 28 166 61 196 102 11 16 30 64 41 108 12 43 26 84 32 91 28 34 241 93
328 90 l65 -2 3 -34z m-2303 -51 c55 -21 213 -77 350 -125 239 -83 305 -111
305 -127 0 -15 -36 -16 -1520 -69 -384 -14 -774 -16 -822 -6 -42 9 -51 32 -15
40 641 145 1378 305 1517 330 38 7 76 -2 185 -43z m7755 -140 c1272 -175 1491
-207 1503 -219 5 -5 7 -14 3 -19 -7 -11 -65 -14 -1241 -58 -1355 -50 -1361
-50 -1381 -33 -15 12 -16 31 -11 179 7 183 20 269 42 286 9 7 35 8 77 2 35 -5
488 -67 1008 -138z m-12840 110 c618 -80 2197 -301 2292 -321 26 -6 48 -14 48
-19 0 -18 -179 -27 -1785 -85 -236 -9 -513 -20 -615 -24 -102 -5 -195 -5 -207
0 -46 17 -52 69 -33 303 12 141 21 176 48 176 9 0 123 -14 252 -30z m5846
-282 c5 -7 8 -68 9 -135 0 -99 -3 -125 -16 -138 -18 -19 27 -23 -759 66 -962
108 -1147 137 -954 153 91 8 646 30 1109 46 176 6 349 12 385 13 176 8 219 7
226 -5z m12019 -209 c-1 -191 -3 -220 -19 -244 -18 -27 -20 -27 -85 -21 -218
22 -2465 344 -2524 362 -36 11 -5 22 80 28 107 8 1167 49 1803 71 256 8 501
17 545 18 44 2 107 3 140 3 l60 -1 0 -216z m-11311 191 c31 -12 34 -40 6 -65
-11 -10 -27 -39 -34 -64 -8 -25 -24 -64 -35 -86 -12 -21 -21 -47 -21 -56 0
-22 -26 -43 -45 -35 -11 4 -15 22 -15 73 0 85 17 202 31 219 18 22 75 29 113
14z m965 -29 c25 -16 68 -40 94 -52 51 -25 69 -57 46 -85 -7 -8 -33 -27 -58
-42 -42 -25 -55 -27 -151 -27 -124 0 -154 12 -203 81 -31 44 -32 44 -74 38
-39 -6 -43 -4 -43 15 0 16 10 26 38 37 20 8 49 21 64 30 37 20 99 32 177 33
55 1 71 -3 110 -28z m-5190 -80 c7 -5 9 -11 4 -14 -24 -15 -425 -105 -1393
-312 -349 -75 -754 -161 -899 -192 -247 -53 -265 -55 -276 -39 -30 41 -78 437
-56 459 6 6 72 14 148 19 219 12 1725 66 2288 81 55 2 116 4 135 5 19 1 41 -2
49 -7z m12026 -10 c-6 -11 -142 -44 -555 -135 -437 -96 -1984 -426 -1998 -426
-17 0 -31 39 -54 155 -18 91 -30 317 -18 328 6 5 395 22 1135 47 325 12 694
24 820 29 335 12 677 13 670 2z m-6484 -68 c75 -71 80 -105 10 -69 -57 30
-119 126 -80 126 6 0 37 -25 70 -57z m-763 30 c4 -15 -105 -133 -124 -133 -27
0 -24 20 9 57 18 21 41 51 51 66 18 29 55 35 64 10z m1013 -10 c13 -13 28 -92
21 -111 -2 -8 -26 -12 -63 -12 -47 0 -62 4 -76 21 -10 11 -33 35 -50 54 -57
59 -48 68 62 63 53 -2 100 -9 106 -15z m7774 -67 c852 -116 1853 -256 1895
-265 33 -6 35 -9 38 -53 3 -47 -42 -272 -75 -368 -14 -42 -23 -56 -40 -58 -23
-3 -90 18 -1223 385 -1254 406 -1358 443 -1248 443 18 0 312 -38 653 -84z
m-7606 54 c86 -11 111 -29 111 -76 0 -64 -71 -83 -147 -39 -57 34 -94 105 -60
118 17 7 14 7 96 -3z m-5939 -19 c0 -5 -6 -11 -12 -14 -7 -3 -96 -40 -198 -82
-537 -223 -2198 -895 -2212 -895 -23 0 -126 291 -143 402 -8 54 -1 61 80 82
153 39 1819 395 2175 465 269 52 310 58 310 42z m12020 0 c0 -10 -88 -47 -806
-339 -1184 -483 -1609 -652 -1621 -648 -8 3 -22 26 -33 51 -35 82 -101 299
-107 352 l-6 52 44 11 c177 48 1960 431 2346 504 140 27 183 31 183 17z
m-5680 -71 c141 -48 276 -110 272 -125 -6 -22 -243 5 -432 48 -61 14 -80 36
-80 96 l0 34 58 -6 c31 -2 113 -24 182 -47z m6814 -44 c445 -140 1089 -350
1646 -536 528 -176 555 -186 553 -208 -8 -70 -143 -375 -175 -396 -14 -9 -41
1 -135 47 -380 188 -2036 1057 -2170 1139 -18 11 -33 24 -33 30 0 18 63 2 314
-76z m-13135 37 c-16 -19 -71 -55 -524 -341 -877 -554 -1666 -1042 -1684
-1042 -24 0 -121 175 -187 335 l-33 80 25 13 c101 53 1348 564 2004 822 430
168 427 167 399 133z m1092 -34 c658 -202 2183 -696 2218 -718 12 -8 10 -25
-18 -108 -37 -114 -128 -301 -153 -317 -20 -12 -85 18 -573 271 -879 456
-1648 864 -1677 891 -54 47 6 42 203 -19z m10919 27 c-55 -53 -2172 -1376
-2202 -1376 -21 0 -196 320 -213 391 -6 25 -2 28 102 74 288 126 1601 662
2026 826 127 49 241 94 252 99 11 5 29 9 40 9 18 1 18 -1 -5 -23z m1004 -122
c524 -264 1979 -1041 2086 -1114 l22 -16 -25 -49 c-33 -66 -155 -251 -197
-298 -18 -21 -39 -36 -46 -33 -37 14 -1792 1368 -1990 1534 -62 52 -87 82 -69
82 4 0 102 -48 219 -106z m-985 29 c-108 -112 -1515 -1382 -1813 -1637 l-90
-77 -39 38 c-80 77 -237 294 -237 327 0 27 200 158 1160 759 920 577 1054 659
1058 647 3 -7 -15 -32 -39 -57z m-12079 -56 c-193 -189 -1436 -1310 -1769
-1595 l-73 -64 -40 39 c-81 77 -238 295 -238 328 0 23 213 163 925 612 884
556 1270 793 1295 793 8 0 -37 -51 -100 -113z m4744 82 c50 -39 77 -115 77
-212 0 -81 -17 -132 -60 -178 -37 -38 -41 -40 -91 -37 -60 3 -62 6 -81 93 -23
105 -10 289 24 343 14 21 100 15 131 -9z m-2794 -50 c546 -72 1439 -198 1481
-210 21 -5 40 -16 43 -24 6 -17 -4 -79 -34 -196 -32 -123 -44 -149 -73 -149
-23 0 -449 136 -1212 386 -534 176 -705 235 -705 246 0 12 31 9 500 -53z
m11000 -63 c240 -184 1289 -1001 1470 -1144 299 -237 440 -356 440 -371 0 -23
-76 -118 -180 -224 -120 -125 -124 -127 -162 -90 -92 86 -1591 1745 -1705
1887 -18 22 -30 43 -27 48 7 11 34 -6 164 -106z m-11751 -17 c632 -326 1933
-1027 1946 -1050 7 -10 -64 -149 -96 -188 -25 -30 -63 -38 -233 -46 l-141 -7
-620 482 c-762 593 -1086 852 -1103 880 -14 24 -8 40 15 40 9 0 113 -50 232
-111z m-1050 79 c-16 -31 -73 -105 -775 -1008 -655 -843 -813 -1042 -830
-1047 -26 -8 -344 289 -344 322 0 19 584 551 1460 1331 487 433 519 460 489
402z m12020 1 c-14 -27 -199 -267 -768 -999 -634 -815 -818 -1047 -835 -1053
-20 -8 -104 61 -251 204 l-110 107 20 23 c41 45 1711 1557 1845 1670 82 69
120 87 99 48z m652 -96 c168 -175 1181 -1286 1547 -1696 73 -82 132 -155 132
-162 0 -28 -232 -214 -336 -270 l-37 -20 -29 35 c-53 63 -1378 2172 -1378
2194 0 18 26 -3 101 -81z m-647 -66 c-127 -253 -697 -1332 -949 -1797 -173
-318 -207 -374 -231 -378 -51 -7 -374 205 -374 246 0 42 1588 2080 1610 2067
5 -3 -20 -65 -56 -138z m594 -17 c143 -213 1069 -1702 1240 -1993 29 -48 52
-94 52 -103 0 -8 -21 -28 -47 -45 -74 -47 -324 -169 -348 -169 -24 0 1 -56
-285 635 -438 1062 -720 1763 -720 1791 0 34 28 4 108 -116z m-584 -290 c-197
-621 -476 -1488 -580 -1802 l-95 -288 -34 0 c-65 0 -389 143 -402 177 -7 18
10 53 360 723 474 911 799 1522 834 1568 15 19 29 30 34 25 5 -5 -45 -178
-117 -403z m182 299 c-19 -253 -329 -2483 -348 -2506 -6 -7 -29 -13 -52 -13
-62 0 -376 78 -399 100 -19 17 48 236 484 1585 171 527 290 887 301 908 17 34
21 16 14 -74z m271 34 c88 -198 935 -2302 949 -2358 6 -23 1 -27 -47 -50 -71
-32 -290 -95 -356 -102 l-52 -6 -10 39 c-18 70 -280 1286 -446 2073 -52 245
-92 448 -89 453 12 19 27 5 51 -49z m-168 -198 c21 -426 63 -1587 77 -2127 l7
-257 -27 -7 c-51 -13 -388 1 -421 17 -28 14 -30 18 -28 68 6 126 328 2415 354
2516 19 68 27 21 38 -210z m83 159 c18 -71 223 -1014 422 -1934 74 -343 110
-531 105 -542 -13 -24 -55 -35 -214 -58 -147 -21 -222 -25 -241 -12 -7 4 -15
32 -18 62 -18 160 -96 2158 -96 2458 0 124 16 133 42 26z m-12392 40 c0 -18
-70 -157 -278 -554 -391 -748 -828 -1558 -874 -1622 -11 -16 -27 -28 -37 -28
-35 0 -318 177 -365 229 -17 19 -33 -3 423 591 646 842 1081 1395 1103 1403
17 6 28 -1 28 -19z m1163 -235 c41 -22 535 -407 937 -730 326 -263 317 -255
303 -270 -12 -12 -295 -38 -435 -39 l-77 0 -258 288 c-474 526 -453 500 -453
569 0 30 -9 68 -25 101 -23 51 -32 92 -19 92 3 0 15 -5 27 -11z m-1217 -160
c-8 -85 -24 -188 -36 -229 -76 -273 -518 -1628 -571 -1749 -14 -34 -27 -51
-39 -51 -58 0 -395 146 -407 176 -9 24 154 345 650 1274 322 605 402 748 414
737 2 -3 -3 -74 -11 -158z m4652 49 c133 -125 130 -122 147 -108 9 7 22 27 29
44 21 49 49 67 125 79 88 13 177 -1 232 -37 48 -32 97 -111 83 -135 -29 -48
-201 -90 -299 -72 -134 24 -207 50 -251 91 -24 22 -55 45 -69 50 -14 5 -29 20
-34 33 -5 14 -21 37 -35 52 -26 28 -32 46 -19 58 13 14 26 6 91 -55z m808 -28
c-14 -22 -39 -46 -55 -55 -16 -8 -39 -28 -51 -45 -24 -33 -60 -41 -60 -12 0
17 112 134 160 166 23 15 25 15 28 1 2 -9 -8 -34 -22 -55z m-4776 -63 c27 -38
80 -167 80 -197 0 -22 -10 -36 -49 -64 -60 -45 -78 -45 -95 -3 -22 51 -47 192
-44 239 2 35 7 43 28 49 34 9 62 1 80 -24z m-181 -6 c22 -22 72 -221 75 -294
1 -43 -3 -52 -29 -73 -42 -33 -113 -70 -120 -62 -17 16 -25 97 -25 255 l0 172
33 10 c45 13 45 13 66 -8z m-324 -32 c15 -15 -39 -425 -65 -495 -6 -15 -37
-36 -92 -63 -105 -50 -133 -58 -141 -37 -8 19 23 128 110 390 62 187 68 199
97 212 31 14 73 11 91 -7z m175 9 c0 -7 5 -76 11 -153 5 -77 7 -172 4 -210
l-6 -71 -77 -27 c-104 -37 -112 -36 -112 11 0 92 53 426 71 448 15 18 109 19
109 2z m458 -70 c16 -16 15 -38 -2 -38 -13 0 -26 20 -26 41 0 13 14 11 28 -3z
m574 -175 c194 -210 427 -471 466 -521 17 -23 22 -36 15 -43 -12 -12 -173 -28
-290 -29 l-83 0 -34 47 c-45 63 -257 392 -328 511 -47 79 -55 99 -46 115 15
30 98 107 113 107 8 0 92 -84 187 -187z m-262 -98 c115 -172 290 -467 290
-489 0 -15 -90 -29 -187 -30 -89 -1 -115 2 -128 15 -13 13 -165 369 -206 483
-13 37 -13 39 16 62 17 14 50 38 74 54 54 37 52 38 141 -95z m-270 -47 c27
-45 114 -250 155 -370 33 -95 34 -98 15 -108 -31 -17 -236 -25 -254 -11 -14
12 -90 303 -102 393 -6 42 -5 45 32 70 99 67 126 71 154 26z m-196 -228 c14
-63 30 -146 37 -183 16 -97 11 -101 -135 -105 -103 -4 -114 -2 -120 14 -4 11
-10 84 -13 164 l-5 145 93 52 c74 42 96 50 105 40 7 -6 24 -64 38 -127z m-281
-50 c10 -56 2 -229 -12 -243 -5 -5 -17 -7 -27 -3 -15 6 -16 16 -10 83 3 42 6
107 6 145 0 60 2 69 17 66 12 -2 20 -18 26 -48z m-506 -118 c24 -50 83 -119
147 -169 l40 -30 -53 -379 c-77 -548 -102 -708 -115 -716 -24 -16 -101 -6
-248 31 -181 46 -208 56 -208 75 0 52 350 1141 391 1218 14 27 22 22 46 -30z
m2972 -31 c12 -8 12 -14 2 -39 -19 -45 -46 -66 -75 -58 -31 8 -101 75 -89 86
19 19 137 26 162 11z m-193 -62 c91 -74 97 -85 76 -128 -18 -38 -278 -311
-296 -311 -12 0 -84 74 -277 285 -139 151 -144 166 -59 177 44 6 344 30 458
37 15 1 50 -21 98 -60z m-531 -171 c179 -201 255 -294 255 -313 0 -21 -247
-213 -326 -254 -23 -12 -47 -19 -55 -16 -17 7 -40 41 -229 345 -178 285 -224
366 -217 384 4 9 30 17 74 22 91 9 315 20 328 16 6 -2 82 -85 170 -184z m-531
-35 c128 -195 298 -468 336 -542 l21 -43 -21 -23 c-23 -25 -270 -155 -340
-180 -22 -8 -46 -12 -54 -9 -7 3 -29 37 -48 77 -58 118 -330 805 -335 847 l-5
38 43 6 c24 3 55 7 69 10 14 2 67 4 117 5 l93 1 124 -187z m-414 -69 c152
-375 278 -697 285 -732 7 -32 5 -33 -50 -57 -83 -37 -280 -95 -346 -102 -50
-5 -58 -3 -63 13 -31 99 -216 1006 -216 1058 0 33 2 35 38 39 20 2 87 4 148 5
l112 2 92 -226z m-441 142 c40 -128 221 -979 221 -1037 0 -22 -37 -33 -176
-54 -144 -21 -239 -28 -267 -21 -20 5 -26 14 -31 48 -18 133 -49 1023 -37
1082 8 38 27 43 168 45 l102 1 20 -64z m-365 41 c14 -10 20 -36 27 -128 14
-193 29 -598 29 -813 l0 -206 -26 -6 c-39 -10 -364 3 -406 15 -36 11 -38 14
-38 54 0 53 29 283 80 638 46 317 57 380 69 392 5 5 29 2 55 -7 65 -22 73 -21
113 19 33 33 61 54 74 55 3 0 13 -6 23 -13z"/>
<path d="M7530 2865 c0 -17 7 -40 15 -52 8 -12 19 -39 23 -60 5 -25 16 -42 32
-50 14 -7 26 -8 28 -4 3 9 -64 147 -87 181 -9 12 -11 9 -11 -15z"/>
<path d="M7650 2633 c0 -18 66 -87 107 -113 24 -15 52 -39 63 -53 23 -28 151
-97 182 -97 11 0 35 -9 53 -20 18 -11 49 -20 71 -20 21 0 83 -2 137 -6 105 -6
153 -1 180 19 14 10 -16 12 -155 12 -155 1 -177 3 -213 22 -22 11 -70 30 -107
42 -72 24 -184 100 -231 157 -28 34 -87 72 -87 57z"/>
</g>
</svg>
